<mxfile host="app.diagrams.net" modified="2023-10-09T09:12:45.092Z" agent="Mozilla/5.0 (Windows NT 10.0; Win64; x64) AppleWebKit/537.36 (KHTML, like Gecko) Chrome/117.0.0.0 Safari/537.36 Edg/117.0.2045.60" etag="8N5BmU8-cLjXY_Z3k8aV" version="22.0.4" type="device">
  <diagram name="Page-1" id="rTJueviRIxitSY4JAyg3">
    <mxGraphModel dx="2548" dy="1734" grid="0" gridSize="10" guides="1" tooltips="1" connect="1" arrows="1" fold="1" page="0" pageScale="1" pageWidth="827" pageHeight="1169" math="0" shadow="0">
      <root>
        <mxCell id="0" />
        <mxCell id="1" parent="0" />
        <mxCell id="6zy5TMnqeb7QaNGAAPQC-1" value="" style="ellipse;whiteSpace=wrap;html=1;fontSize=16;" vertex="1" parent="1">
          <mxGeometry x="-144" y="-15" width="120" height="80" as="geometry" />
        </mxCell>
        <mxCell id="6zy5TMnqeb7QaNGAAPQC-6" value="Actor" style="shape=umlActor;verticalLabelPosition=bottom;verticalAlign=top;html=1;outlineConnect=0;fontSize=16;" vertex="1" parent="1">
          <mxGeometry x="-357" y="-22" width="73" height="123" as="geometry" />
        </mxCell>
        <mxCell id="6zy5TMnqeb7QaNGAAPQC-7" value="" style="ellipse;whiteSpace=wrap;html=1;fontSize=16;" vertex="1" parent="1">
          <mxGeometry x="155" y="71" width="120" height="80" as="geometry" />
        </mxCell>
        <mxCell id="6zy5TMnqeb7QaNGAAPQC-8" value="" style="ellipse;whiteSpace=wrap;html=1;fontSize=16;" vertex="1" parent="1">
          <mxGeometry x="155" y="477" width="120" height="80" as="geometry" />
        </mxCell>
        <mxCell id="6zy5TMnqeb7QaNGAAPQC-9" value="" style="ellipse;whiteSpace=wrap;html=1;fontSize=16;" vertex="1" parent="1">
          <mxGeometry x="152" y="330" width="120" height="80" as="geometry" />
        </mxCell>
        <mxCell id="6zy5TMnqeb7QaNGAAPQC-10" value="" style="ellipse;whiteSpace=wrap;html=1;fontSize=16;" vertex="1" parent="1">
          <mxGeometry x="155" y="-122" width="120" height="80" as="geometry" />
        </mxCell>
        <mxCell id="6zy5TMnqeb7QaNGAAPQC-19" value="" style="endArrow=none;html=1;rounded=0;fontSize=12;startSize=8;endSize=8;curved=1;exitX=1.08;exitY=0.579;exitDx=0;exitDy=0;exitPerimeter=0;" edge="1" parent="1" source="6zy5TMnqeb7QaNGAAPQC-20">
          <mxGeometry width="50" height="50" relative="1" as="geometry">
            <mxPoint x="275" y="662" as="sourcePoint" />
            <mxPoint x="712" y="460" as="targetPoint" />
          </mxGeometry>
        </mxCell>
        <mxCell id="6zy5TMnqeb7QaNGAAPQC-20" value="" style="ellipse;whiteSpace=wrap;html=1;fontSize=16;" vertex="1" parent="1">
          <mxGeometry x="152" y="629" width="120" height="80" as="geometry" />
        </mxCell>
        <mxCell id="6zy5TMnqeb7QaNGAAPQC-21" value="" style="endArrow=none;html=1;rounded=0;fontSize=12;startSize=8;endSize=8;curved=1;" edge="1" parent="1">
          <mxGeometry width="50" height="50" relative="1" as="geometry">
            <mxPoint x="277" y="510" as="sourcePoint" />
            <mxPoint x="712" y="438" as="targetPoint" />
          </mxGeometry>
        </mxCell>
        <mxCell id="6zy5TMnqeb7QaNGAAPQC-22" value="" style="endArrow=none;html=1;rounded=0;fontSize=12;startSize=8;endSize=8;curved=1;" edge="1" parent="1">
          <mxGeometry width="50" height="50" relative="1" as="geometry">
            <mxPoint x="272" y="377" as="sourcePoint" />
            <mxPoint x="714" y="429" as="targetPoint" />
          </mxGeometry>
        </mxCell>
        <mxCell id="6zy5TMnqeb7QaNGAAPQC-24" value="" style="endArrow=none;html=1;rounded=0;fontSize=12;startSize=8;endSize=8;curved=1;" edge="1" parent="1">
          <mxGeometry width="50" height="50" relative="1" as="geometry">
            <mxPoint x="278" y="115" as="sourcePoint" />
            <mxPoint x="699" y="38" as="targetPoint" />
          </mxGeometry>
        </mxCell>
        <mxCell id="6zy5TMnqeb7QaNGAAPQC-25" value="" style="endArrow=none;html=1;rounded=0;fontSize=12;startSize=8;endSize=8;curved=1;" edge="1" parent="1">
          <mxGeometry width="50" height="50" relative="1" as="geometry">
            <mxPoint x="275" y="-80" as="sourcePoint" />
            <mxPoint x="697" y="26" as="targetPoint" />
          </mxGeometry>
        </mxCell>
        <mxCell id="6zy5TMnqeb7QaNGAAPQC-27" value="" style="endArrow=none;html=1;rounded=0;fontSize=12;startSize=8;endSize=8;curved=1;" edge="1" parent="1">
          <mxGeometry width="50" height="50" relative="1" as="geometry">
            <mxPoint x="-276" y="16" as="sourcePoint" />
            <mxPoint x="-161" y="21" as="targetPoint" />
          </mxGeometry>
        </mxCell>
        <mxCell id="6zy5TMnqeb7QaNGAAPQC-28" value="Actor" style="shape=umlActor;verticalLabelPosition=bottom;verticalAlign=top;html=1;outlineConnect=0;fontSize=16;" vertex="1" parent="1">
          <mxGeometry x="745" y="388" width="77" height="119" as="geometry" />
        </mxCell>
        <mxCell id="6zy5TMnqeb7QaNGAAPQC-29" value="Actor" style="shape=umlActor;verticalLabelPosition=bottom;verticalAlign=top;html=1;outlineConnect=0;fontSize=16;" vertex="1" parent="1">
          <mxGeometry x="745" y="-22" width="83" height="115" as="geometry" />
        </mxCell>
        <mxCell id="6zy5TMnqeb7QaNGAAPQC-30" style="edgeStyle=none;curved=1;rounded=0;orthogonalLoop=1;jettySize=auto;html=1;exitX=0.25;exitY=0.1;exitDx=0;exitDy=0;exitPerimeter=0;fontSize=12;startSize=8;endSize=8;" edge="1" parent="1" source="6zy5TMnqeb7QaNGAAPQC-28" target="6zy5TMnqeb7QaNGAAPQC-28">
          <mxGeometry relative="1" as="geometry" />
        </mxCell>
      </root>
    </mxGraphModel>
  </diagram>
</mxfile>
